<svg xmlns="http://www.w3.org/2000/svg" xmlns:xlink="http://www.w3.org/1999/xlink" width="20" height="20" viewBox="0 0 20 20" fill="none">
<path d="M10.7143 5.77971C11.6743 5.42455 12.3574 4.51114 12.3574 3.42489C12.3574 2.03668 11.2099 0.911316 9.82165 0.911316C8.42121 0.911316 7.28593 2.02446 7.28593 3.42489C7.28593 4.49964 7.97373 5.41685 8.92854 5.77626L8.92854 7.83382L10.7143 7.83382L10.7143 5.77971ZM10.8574 3.42489C10.8574 2.8651 10.3814 2.41131 9.82165 2.41131C9.24965 2.41131 8.78594 2.85289 8.78594 3.42489C8.78594 3.98467 9.26186 4.43846 9.82165 4.43846C10.3937 4.43846 10.8574 3.99689 10.8574 3.42489Z" fill-rule="evenodd"  fill="#273836" >
</path>
<path d="M4.88862 13.7721C4.122 13.1662 3.02747 13.0514 2.12584 13.5654C0.951462 14.2351 0.549088 15.7181 1.22712 16.8779C1.90515 18.0377 3.40683 18.4351 4.58121 17.7655C5.48277 17.2514 5.92935 16.258 5.78142 15.2994L7.66636 14.2247L6.7735 12.6974L4.88862 13.7721ZM2.79549 14.7109C2.26168 15.0153 2.07878 15.6894 2.38698 16.2166C2.69518 16.7438 3.37775 16.9244 3.91157 16.62C4.44538 16.3157 4.62828 15.6416 4.32008 15.1144C4.01188 14.5872 3.3293 14.4065 2.79549 14.7109Z" fill-rule="evenodd"  fill="#273836" >
</path>
<path d="M14.2179 15.3214C14.0699 16.2799 14.5165 17.2734 15.4181 17.7874C16.5924 18.4571 18.0941 18.0597 18.7722 16.8999C19.4502 15.7401 19.0478 14.257 17.8734 13.5874C16.9718 13.0733 15.8773 13.1881 15.1107 13.794L13.2258 12.7193L12.3329 14.2466L14.2179 15.3214ZM16.0877 16.642C16.6215 16.9464 17.3041 16.7657 17.6123 16.2385C17.9205 15.7113 17.7376 15.0372 17.2038 14.7329C16.67 14.4285 15.9874 14.6091 15.6792 15.1363C15.371 15.6635 15.5539 16.3376 16.0877 16.642Z" fill-rule="evenodd"  fill="#273836" >
</path>
<path   fill="rgba(2, 189, 170, 1)"  d="M13.4144 10.1784L13.4144 12.5436Q13.4144 12.9477 13.2114 13.2971Q13.0084 13.6465 12.6574 13.8467L10.5644 15.0401Q10.219 15.237 9.82144 15.237Q9.42386 15.237 9.07847 15.0401L6.9855 13.8467Q6.63446 13.6465 6.43147 13.2971Q6.22849 12.9477 6.22849 12.5436L6.22849 10.1784Q6.22849 9.77429 6.43147 9.42488Q6.63446 9.07547 6.9855 8.87532L9.07847 7.68193Q9.42386 7.48499 9.82144 7.48499Q10.219 7.48499 10.5644 7.68193L12.6574 8.87532Q13.0084 9.07547 13.2114 9.42488Q13.4144 9.77429 13.4144 10.1784ZM12.4144 10.1784Q12.4144 10.0437 12.3467 9.92722Q12.2791 9.81075 12.1621 9.74403L10.0691 8.55064Q9.82144 8.40943 9.57378 8.55064L7.48082 9.74403Q7.3638 9.81075 7.29614 9.92722Q7.22848 10.0437 7.22848 10.1784L7.22848 12.5436Q7.22848 12.6783 7.29614 12.7948Q7.3638 12.9113 7.48082 12.978L9.57379 14.1714Q9.82144 14.3126 10.0691 14.1714L12.1621 12.978Q12.2791 12.9113 12.3467 12.7948Q12.4144 12.6783 12.4144 12.5436L12.4144 10.1784Z">
</path>
</svg>
