<svg xmlns="http://www.w3.org/2000/svg" xmlns:xlink="http://www.w3.org/1999/xlink" width="20" height="20" viewBox="0 0 20 20" fill="none">
<path d="M7.77779 2.79999L7.77779 5.04998L6 5.04998L6 2.34999C6 2.32791 6.00054 2.30582 6.00161 2.28375C6.00268 2.26169 6.00428 2.23966 6.00642 2.21768C6.00857 2.19569 6.01123 2.17377 6.01443 2.15191C6.01763 2.13006 6.02136 2.1083 6.02563 2.08663C6.02988 2.06495 6.03466 2.0434 6.03995 2.02197C6.04526 2.00054 6.05109 1.97925 6.05742 1.95811C6.06375 1.93698 6.07059 1.916 6.07795 1.89518C6.0853 1.87438 6.09315 1.85378 6.1015 1.83338C6.10985 1.81296 6.11869 1.79276 6.12802 1.7728C6.13735 1.75283 6.14716 1.7331 6.15744 1.7136C6.16773 1.69412 6.17848 1.67491 6.18969 1.65597C6.20092 1.63701 6.21259 1.61835 6.2247 1.59998C6.23682 1.58161 6.24939 1.56355 6.26239 1.5458C6.27539 1.52806 6.2888 1.51065 6.30265 1.49357C6.31649 1.47649 6.33075 1.45976 6.3454 1.44338C6.36006 1.42702 6.3751 1.41103 6.39052 1.3954C6.40596 1.37978 6.42175 1.36455 6.43792 1.34972C6.45409 1.33488 6.47061 1.32045 6.48748 1.30643C6.50435 1.29241 6.52155 1.27883 6.53907 1.26567C6.5566 1.2525 6.57444 1.23979 6.59258 1.22753C6.61072 1.21525 6.62916 1.20343 6.64788 1.19206C6.66658 1.18071 6.68556 1.16983 6.7048 1.15941C6.72406 1.149 6.74354 1.13906 6.76326 1.12962C6.78298 1.12017 6.80293 1.11122 6.8231 1.10277C6.84325 1.09431 6.8636 1.08637 6.88414 1.07893C6.9047 1.07147 6.92542 1.06454 6.9463 1.05814C6.96717 1.05172 6.98819 1.04583 7.00936 1.04045C7.03053 1.03509 7.05182 1.03026 7.07323 1.02595C7.09463 1.02163 7.11612 1.01785 7.1377 1.01461C7.15929 1.01137 7.18094 1.00867 7.20266 1.0065C7.22437 1.00434 7.24612 1.00271 7.26791 1.00163C7.28972 1.00054 7.31153 1 7.33334 1L12.6667 1C12.6885 1 12.7103 1.00054 12.7321 1.00163C12.7539 1.00271 12.7757 1.00434 12.7974 1.0065C12.8191 1.00867 12.8408 1.01137 12.8624 1.01461C12.8839 1.01785 12.9054 1.02163 12.9268 1.02595C12.9482 1.03026 12.9695 1.03509 12.9907 1.04045C13.0119 1.04583 13.0329 1.05172 13.0538 1.05814C13.0746 1.06454 13.0953 1.07147 13.1159 1.07893C13.1364 1.08637 13.1568 1.09431 13.177 1.10277C13.1971 1.11122 13.2171 1.12017 13.2368 1.12962C13.2565 1.13906 13.276 1.149 13.2953 1.15941C13.3145 1.16983 13.3335 1.18071 13.3522 1.19206C13.3709 1.20343 13.3893 1.21525 13.4075 1.22753C13.4256 1.23979 13.4435 1.2525 13.461 1.26567C13.4785 1.27883 13.4957 1.29241 13.5126 1.30643C13.5294 1.32045 13.546 1.33488 13.5621 1.34972C13.5783 1.36455 13.5941 1.37978 13.6095 1.3954C13.625 1.41103 13.64 1.42702 13.6547 1.44338C13.6693 1.45976 13.6836 1.47649 13.6974 1.49357C13.7112 1.51065 13.7247 1.52806 13.7377 1.5458C13.7507 1.56355 13.7632 1.58161 13.7753 1.59998C13.7875 1.61835 13.7991 1.63701 13.8104 1.65597C13.8216 1.67491 13.8323 1.69412 13.8426 1.7136C13.8529 1.7331 13.8627 1.75283 13.872 1.7728C13.8814 1.79276 13.8902 1.81296 13.8986 1.83338C13.9069 1.85378 13.9147 1.87438 13.9221 1.89518C13.9295 1.916 13.9363 1.93698 13.9426 1.95811C13.949 1.97925 13.9548 2.00054 13.9601 2.02197C13.9654 2.0434 13.9702 2.06495 13.9744 2.08663C13.9787 2.1083 13.9824 2.13006 13.9856 2.15191C13.9888 2.17377 13.9915 2.19569 13.9936 2.21768C13.9958 2.23966 13.9974 2.26169 13.9984 2.28375C13.9995 2.30582 14.0001 2.32791 14.0001 2.34999L14.0001 5.04998L12.2223 5.04998L12.2223 2.79999L7.77779 2.79999Z"   fill="#000000" >
</path>
<path d="M3.77806 10.9L16.2226 10.9C16.8152 10.9 17.1115 11.2 17.1115 11.8C17.1115 12.4 16.8152 12.7 16.2226 12.7L3.77806 12.7C3.18546 12.7 2.88916 12.4 2.88916 11.8C2.88916 11.2 3.18546 10.9 3.77806 10.9Z"   fill="#02BDAA" >
</path>
<path d="M6.8889 9.54999C7.48149 9.54999 7.77779 9.84999 7.77779 10.45L7.77779 13.15C7.77779 13.75 7.48149 14.05 6.8889 14.05C6.2963 14.05 6 13.75 6 13.15L6 10.45C6 9.84999 6.2963 9.54999 6.8889 9.54999Z"   fill="#02BDAA" >
</path>
<path d="M13.1116 9.54999C13.7041 9.54999 14.0004 9.84999 14.0004 10.45L14.0004 13.15C14.0004 13.75 13.7041 14.05 13.1116 14.05C12.519 14.05 12.2227 13.75 12.2227 13.15L12.2227 10.45C12.2227 9.84999 12.519 9.54999 13.1116 9.54999Z"   fill="#02BDAA" >
</path>
<path d="M4.66669 5.95005C4.65212 5.95005 4.63758 5.95041 4.62306 5.95112C4.60855 5.95186 4.59403 5.95294 4.57955 5.95438C4.56508 5.95583 4.55065 5.95763 4.53626 5.95978C4.52187 5.96195 4.50753 5.96447 4.49327 5.96734C4.47901 5.97021 4.46482 5.97344 4.45071 5.97703C4.43658 5.98061 4.42256 5.98453 4.40865 5.98881C4.39474 5.99309 4.38092 5.9977 4.36723 6.00265C4.35353 6.00762 4.33995 6.01292 4.32651 6.01856C4.31308 6.0242 4.29978 6.03017 4.28663 6.03647C4.27347 6.04275 4.2605 6.04936 4.24767 6.05631C4.23485 6.06325 4.22217 6.07051 4.20969 6.07808C4.19722 6.08566 4.18493 6.09354 4.17284 6.10172C4.16075 6.10991 4.14886 6.1184 4.13717 6.12717C4.12549 6.13594 4.11403 6.145 4.10277 6.15433C4.09153 6.16367 4.08052 6.1733 4.06974 6.1832C4.05896 6.19309 4.04843 6.20324 4.03814 6.21365C4.02786 6.22407 4.01783 6.23473 4.00807 6.24564C3.99828 6.25656 3.98879 6.2677 3.97957 6.27909C3.97034 6.29047 3.96139 6.30208 3.95273 6.31391C3.94406 6.32575 3.93568 6.33779 3.9276 6.35004C3.91951 6.36228 3.91173 6.37471 3.90424 6.38735C3.89676 6.39998 3.8896 6.41281 3.88276 6.4258C3.8759 6.43878 3.86936 6.45192 3.86314 6.46524C3.85692 6.47855 3.85103 6.49202 3.84546 6.50562C3.83988 6.51923 3.83465 6.53298 3.82974 6.54684C3.82485 6.56071 3.8203 6.57471 3.81607 6.58879C3.81185 6.60287 3.80797 6.61707 3.80444 6.63137C3.8009 6.64566 3.79771 6.66003 3.79487 6.67446C3.79203 6.6889 3.78955 6.70342 3.7874 6.71799C3.78528 6.73256 3.7835 6.74717 3.78207 6.76182C3.78065 6.77648 3.77958 6.79118 3.77885 6.80588C3.77814 6.82058 3.77779 6.8353 3.77779 6.85004L3.77779 16.3C3.77779 16.3147 3.77814 16.3295 3.77885 16.3442C3.77958 16.3589 3.78065 16.3736 3.78207 16.3882C3.7835 16.4029 3.78528 16.4175 3.7874 16.4321C3.78955 16.4466 3.79203 16.4612 3.79487 16.4756C3.79771 16.49 3.8009 16.5044 3.80444 16.5187C3.80797 16.533 3.81185 16.5472 3.81607 16.5613C3.8203 16.5753 3.82485 16.5893 3.82974 16.6032C3.83465 16.6171 3.83988 16.6308 3.84546 16.6444C3.85103 16.658 3.85692 16.6715 3.86314 16.6848C3.86935 16.6981 3.87588 16.7113 3.88274 16.7243C3.8896 16.7372 3.89676 16.7501 3.90424 16.7627C3.91173 16.7753 3.91951 16.7878 3.9276 16.8C3.93568 16.8123 3.94406 16.8243 3.95273 16.8361C3.96139 16.848 3.97033 16.8596 3.97955 16.871C3.98878 16.8823 3.99828 16.8935 4.00807 16.9044C4.01783 16.9153 4.02786 16.926 4.03814 16.9364C4.04843 16.9468 4.05896 16.957 4.06974 16.9669C4.08052 16.9768 4.09153 16.9864 4.10277 16.9957C4.11401 17.005 4.12548 17.0141 4.13717 17.0229C4.14886 17.0317 4.16075 17.0401 4.17284 17.0483C4.18493 17.0565 4.19722 17.0644 4.20969 17.0719C4.22217 17.0795 4.23485 17.0868 4.24767 17.0937C4.2605 17.1007 4.27347 17.1073 4.28663 17.1136C4.29978 17.1199 4.31308 17.1258 4.32651 17.1315C4.33995 17.1371 4.35353 17.1424 4.36723 17.1474C4.38092 17.1523 4.39474 17.157 4.40865 17.1612C4.42256 17.1655 4.43658 17.1694 4.45071 17.173C4.46482 17.1766 4.47901 17.1798 4.49327 17.1827C4.50753 17.1856 4.52187 17.1881 4.53626 17.1903C4.55065 17.1924 4.56508 17.1942 4.57955 17.1957C4.59403 17.1971 4.60855 17.1982 4.62306 17.1989C4.63758 17.1997 4.65212 17.2 4.66669 17.2L15.3334 17.2C15.348 17.2 15.3625 17.1997 15.377 17.1989C15.3916 17.1982 15.4061 17.1971 15.4206 17.1957C15.435 17.1942 15.4495 17.1924 15.4639 17.1903C15.4782 17.1881 15.4926 17.1856 15.5068 17.1827C15.5211 17.1798 15.5353 17.1766 15.5494 17.173C15.5635 17.1694 15.5775 17.1655 15.5915 17.1612C15.6054 17.157 15.6192 17.1523 15.6329 17.1474C15.6466 17.1424 15.6602 17.1371 15.6736 17.1315C15.687 17.1258 15.7003 17.1199 15.7135 17.1136C15.7266 17.1073 15.7396 17.1007 15.7524 17.0937C15.7653 17.0868 15.7779 17.0795 15.7904 17.0719C15.8029 17.0644 15.8152 17.0565 15.8273 17.0483C15.8394 17.0401 15.8512 17.0317 15.8629 17.0229C15.8746 17.0141 15.8861 17.005 15.8973 16.9957C15.9086 16.9864 15.9196 16.9768 15.9304 16.9669C15.9412 16.957 15.9517 16.9468 15.962 16.9364C15.9723 16.926 15.9823 16.9153 15.992 16.9044C16.0018 16.8935 16.0113 16.8823 16.0205 16.871C16.0298 16.8596 16.0387 16.848 16.0474 16.8361C16.056 16.8243 16.0644 16.8123 16.0725 16.8C16.0806 16.7878 16.0884 16.7753 16.0959 16.7627C16.1033 16.7501 16.1105 16.7372 16.1173 16.7243C16.1242 16.7113 16.1307 16.6981 16.137 16.6848C16.1432 16.6715 16.1491 16.658 16.1547 16.6444C16.1602 16.6308 16.1655 16.6171 16.1704 16.6032C16.1752 16.5893 16.1798 16.5753 16.184 16.5613C16.1883 16.5472 16.1921 16.533 16.1957 16.5187C16.1992 16.5044 16.2024 16.49 16.2052 16.4756C16.2081 16.4612 16.2106 16.4466 16.2127 16.4321C16.2148 16.4175 16.2166 16.4029 16.218 16.3882C16.2195 16.3736 16.2205 16.3589 16.2213 16.3442C16.222 16.3295 16.2223 16.3147 16.2223 16.3L16.2223 6.85004C16.2223 6.83532 16.222 6.8206 16.2213 6.80588C16.2205 6.79118 16.2195 6.77648 16.218 6.76182C16.2166 6.74717 16.2148 6.73256 16.2127 6.71799C16.2106 6.70342 16.2081 6.6889 16.2052 6.67446C16.2024 6.66003 16.1992 6.64566 16.1957 6.63137C16.1921 6.61707 16.1883 6.60287 16.184 6.58879C16.1798 6.57471 16.1752 6.56071 16.1704 6.54684C16.1655 6.53298 16.1602 6.51923 16.1547 6.50562C16.1491 6.49202 16.1432 6.47855 16.137 6.46524C16.1307 6.45192 16.1242 6.43878 16.1173 6.4258C16.1105 6.41281 16.1033 6.39998 16.0959 6.38735C16.0884 6.37471 16.0806 6.36228 16.0725 6.35004C16.0644 6.33779 16.056 6.32575 16.0474 6.31391C16.0387 6.30208 16.0298 6.29047 16.0206 6.27909C16.0113 6.2677 16.0018 6.25656 15.992 6.24564C15.9823 6.23473 15.9723 6.22407 15.962 6.21365C15.9517 6.20324 15.9412 6.19309 15.9304 6.1832C15.9196 6.1733 15.9086 6.16367 15.8973 6.15433C15.8861 6.145 15.8746 6.13594 15.8629 6.12717C15.8512 6.1184 15.8394 6.10991 15.8273 6.10172C15.8152 6.09354 15.8029 6.08566 15.7904 6.07808C15.7779 6.07052 15.7653 6.06327 15.7524 6.05633C15.7396 6.04937 15.7266 6.04275 15.7135 6.03647C15.7003 6.03017 15.687 6.0242 15.6736 6.01856C15.6602 6.01292 15.6466 6.00762 15.6329 6.00265C15.6192 5.9977 15.6054 5.99309 15.5915 5.98881C15.5775 5.98453 15.5635 5.98061 15.5494 5.97703C15.5353 5.97344 15.5211 5.97021 15.5068 5.96734C15.4926 5.96447 15.4782 5.96195 15.4639 5.95978C15.4495 5.95763 15.435 5.95583 15.4206 5.95438C15.4061 5.95294 15.3916 5.95186 15.377 5.95112C15.3625 5.95041 15.348 5.95005 15.3334 5.95005L4.66669 5.95005ZM4.66669 4.15005L15.3334 4.15005C15.3771 4.15005 15.4207 4.15114 15.4643 4.15331C15.5079 4.15548 15.5514 4.15873 15.5948 4.16306C15.6382 4.16738 15.6815 4.17279 15.7247 4.17928C15.7679 4.18577 15.8109 4.19332 15.8537 4.20193C15.8965 4.21056 15.939 4.22024 15.9814 4.23098C16.0237 4.24172 16.0658 4.25349 16.1075 4.26631C16.1493 4.27914 16.1907 4.293 16.2318 4.30788C16.2729 4.32277 16.3136 4.33867 16.3539 4.35559C16.3942 4.37249 16.4341 4.39039 16.4736 4.40929C16.513 4.42818 16.552 4.44805 16.5905 4.46888C16.629 4.48969 16.6669 4.51146 16.7044 4.53418C16.7418 4.5569 16.7787 4.58053 16.8149 4.60508C16.8512 4.62963 16.8869 4.65507 16.922 4.6814C16.957 4.70772 16.9914 4.73489 17.0251 4.76291C17.0589 4.79095 17.0919 4.81981 17.1243 4.84949C17.1566 4.87916 17.1882 4.90962 17.219 4.94087C17.2499 4.97211 17.28 5.00411 17.3093 5.03685C17.3386 5.06958 17.3671 5.10304 17.3948 5.13719C17.4225 5.17136 17.4493 5.20618 17.4753 5.24165C17.5013 5.27714 17.5265 5.31326 17.5507 5.35C17.5749 5.38675 17.5983 5.42408 17.6207 5.46197C17.6431 5.49987 17.6646 5.5383 17.6852 5.57728C17.7058 5.61625 17.7254 5.6557 17.7441 5.69565C17.7627 5.7356 17.7804 5.77598 17.7971 5.81681C17.8138 5.85763 17.8295 5.89885 17.8442 5.94045C17.8589 5.98205 17.8726 6.02399 17.8853 6.06628C17.8979 6.10856 17.9096 6.15113 17.9202 6.19401C17.9308 6.23687 17.9403 6.27997 17.9489 6.3233C17.9574 6.36665 17.9648 6.41018 17.9712 6.45388C17.9776 6.49758 17.983 6.54144 17.9873 6.58541C17.9915 6.62937 17.9947 6.67343 17.9969 6.71757C17.999 6.76169 18.0001 6.80586 18.0001 6.85004L18.0001 16.3C18.0001 16.3442 17.999 16.3884 17.9969 16.4325C17.9947 16.4766 17.9915 16.5207 17.9873 16.5646C17.983 16.6086 17.9776 16.6525 17.9712 16.6962C17.9648 16.7399 17.9574 16.7834 17.9489 16.8268C17.9403 16.8701 17.9308 16.9132 17.9202 16.956C17.9096 16.9989 17.8979 17.0415 17.8853 17.0838C17.8726 17.1261 17.8589 17.168 17.8442 17.2096C17.8295 17.2512 17.8138 17.2924 17.7971 17.3332C17.7804 17.3741 17.7627 17.4145 17.7441 17.4544C17.7254 17.4943 17.7058 17.5338 17.6852 17.5728C17.6646 17.6117 17.6431 17.6502 17.6207 17.6881C17.5983 17.726 17.5749 17.7633 17.5507 17.8C17.5265 17.8368 17.5013 17.8729 17.4753 17.9084C17.4493 17.9439 17.4225 17.9787 17.3948 18.0129C17.3671 18.047 17.3386 18.0805 17.3093 18.1132C17.28 18.1459 17.2499 18.1779 17.219 18.2092C17.1882 18.2404 17.1566 18.2709 17.1243 18.3006C17.0919 18.3302 17.0589 18.3591 17.0251 18.3871C16.9914 18.4152 16.957 18.4423 16.922 18.4687C16.8869 18.495 16.8512 18.5204 16.8149 18.545C16.7787 18.5695 16.7418 18.5932 16.7044 18.6159C16.6669 18.6386 16.629 18.6603 16.5905 18.6812C16.552 18.702 16.513 18.7219 16.4736 18.7408C16.4341 18.7597 16.3942 18.7776 16.3539 18.7945C16.3136 18.8114 16.2729 18.8273 16.2318 18.8422C16.1907 18.857 16.1493 18.8709 16.1075 18.8837C16.0657 18.8965 16.0237 18.9083 15.9814 18.9191C15.939 18.9298 15.8965 18.9395 15.8537 18.9481C15.8109 18.9567 15.7679 18.9643 15.7247 18.9708C15.6815 18.9773 15.6382 18.9827 15.5948 18.987C15.5514 18.9913 15.5079 18.9946 15.4643 18.9967C15.4207 18.9989 15.3771 19 15.3334 19L4.66669 19C4.62304 19 4.57942 18.9989 4.53585 18.9967C4.49225 18.9946 4.44874 18.9913 4.40531 18.987C4.36189 18.9827 4.31857 18.9773 4.27541 18.9708C4.23224 18.9643 4.18925 18.9567 4.14643 18.9481C4.10364 18.9395 4.06108 18.9298 4.01874 18.9191C3.9764 18.9083 3.93434 18.8965 3.89259 18.8837C3.85082 18.8709 3.80939 18.857 3.76831 18.8422C3.72722 18.8273 3.68651 18.8114 3.64619 18.7945C3.60587 18.7776 3.56598 18.7597 3.52653 18.7408C3.48708 18.7219 3.44811 18.702 3.40962 18.6812C3.37112 18.6603 3.33316 18.6386 3.29573 18.6159C3.25831 18.5932 3.22144 18.5695 3.18514 18.545C3.14886 18.5204 3.11319 18.495 3.07813 18.4687C3.04309 18.4423 3.0087 18.4152 2.97496 18.3871C2.94122 18.3591 2.90819 18.3302 2.87585 18.3006C2.84352 18.2709 2.81192 18.2404 2.78106 18.2092C2.7502 18.1779 2.72012 18.1459 2.6908 18.1132C2.66149 18.0805 2.63299 18.047 2.6053 18.0129C2.57762 17.9787 2.55079 17.9439 2.52479 17.9084C2.49879 17.8729 2.47366 17.8368 2.44942 17.8C2.42517 17.7633 2.40183 17.726 2.37939 17.6881C2.35695 17.6502 2.33544 17.6117 2.31487 17.5728C2.29431 17.5338 2.2747 17.4943 2.25603 17.4544C2.23737 17.4145 2.21969 17.3741 2.203 17.3332C2.18629 17.2924 2.17058 17.2512 2.15588 17.2096C2.14118 17.168 2.1275 17.1261 2.11482 17.0838C2.10216 17.0415 2.09053 16.9989 2.07993 16.956C2.06932 16.9132 2.05976 16.8701 2.05124 16.8268C2.04273 16.7834 2.03527 16.7399 2.02886 16.6962C2.02245 16.6525 2.01712 16.6086 2.01285 16.5646C2.00856 16.5207 2.00535 16.4766 2.00321 16.4325C2.00107 16.3884 2 16.3442 2 16.3L2 6.85004C2 6.80586 2.00107 6.76169 2.00321 6.71757C2.00535 6.67343 2.00856 6.62937 2.01285 6.58541C2.01712 6.54144 2.02245 6.49758 2.02886 6.45388C2.03527 6.41018 2.04273 6.36665 2.05124 6.3233C2.05976 6.27997 2.06932 6.23687 2.07993 6.19401C2.09053 6.15113 2.10216 6.10856 2.11482 6.06628C2.1275 6.02399 2.14118 5.98205 2.15588 5.94045C2.17058 5.89885 2.18629 5.85763 2.203 5.81681C2.21969 5.77598 2.23737 5.7356 2.25603 5.69565C2.2747 5.6557 2.29432 5.61625 2.31489 5.57728C2.33545 5.5383 2.35695 5.49987 2.37939 5.46197C2.40183 5.42408 2.42517 5.38676 2.44942 5.35002C2.47366 5.31327 2.49879 5.27714 2.52479 5.24165C2.55079 5.20618 2.57762 5.17136 2.6053 5.13719C2.63299 5.10304 2.66149 5.06958 2.6908 5.03685C2.72012 5.00411 2.7502 4.97211 2.78106 4.94087C2.81192 4.90962 2.84352 4.87916 2.87585 4.84949C2.90819 4.81981 2.94122 4.79095 2.97496 4.76291C3.0087 4.73489 3.04309 4.70772 3.07813 4.6814C3.11319 4.65507 3.14886 4.62963 3.18516 4.60508C3.22145 4.58053 3.25831 4.5569 3.29573 4.53418C3.33316 4.51146 3.37112 4.48969 3.40962 4.46888C3.44811 4.44805 3.48708 4.42818 3.52653 4.40929C3.56598 4.39039 3.60587 4.37249 3.64619 4.35559C3.68651 4.33867 3.72722 4.32277 3.76831 4.30788C3.80939 4.293 3.85082 4.27914 3.89259 4.26631C3.93434 4.25349 3.9764 4.24172 4.01874 4.23098C4.06108 4.22024 4.10364 4.21056 4.14643 4.20193C4.18925 4.19332 4.23224 4.18577 4.27541 4.17928C4.31857 4.17279 4.36189 4.16738 4.40531 4.16306C4.44874 4.15873 4.49225 4.15548 4.53585 4.15331C4.57942 4.15114 4.62304 4.15005 4.66669 4.15005Z"   fill="#000000" >
</path>
</svg>
