<svg xmlns="http://www.w3.org/2000/svg" xmlns:xlink="http://www.w3.org/1999/xlink" width="16" height="16" viewBox="0 0 16 16" fill="none">
<path d="M8 0C12.4364 0 16 3.59999 16 8C16 10.5091 14.8698 12.7294 13.088 14.184L13.088 15.272C13.088 15.6356 12.7236 16 12.36 16L7.672 16C3.41745 15.8182 0 12.2909 0 8C0 3.60001 3.56364 0 8 0ZM11.2 6.4C10.7626 6.4 10.4 6.74828 10.4 7.184L10.4 7.2C10.4 8.52548 9.32548 9.6 8 9.6C6.67452 9.6 5.6 8.52548 5.6 7.2L5.6 7.184C5.6 6.74828 5.2374 6.4 4.8 6.4C4.35817 6.4 4 6.75818 4 7.2L4 7.216C4 9.41865 5.79557 11.2 8 11.2C10.2092 11.2 12 9.40913 12 7.2L12 7.184C12 6.74828 11.6374 6.4 11.2 6.4Z"   fill="#02BDAA" >
</path>
</svg>
